<?xml version="1.0" encoding="UTF-8" standalone="no"?>
<!-- Created with Inkscape (http://www.inkscape.org/) -->

<svg
   width="40mm"
   height="40mm"
   viewBox="0 0 40 40"
   version="1.1"
   id="svg1"
   xmlns="http://www.w3.org/2000/svg"
   xmlns:svg="http://www.w3.org/2000/svg">
  <defs
     id="defs1" />
  <g
     id="layer1"
     transform="translate(-85,-128.5)">
    <path
       id="rect1"
       style="stroke-width:0.216934"
       d="m 89.6626,128.5 h 30.6748 c 2.58308,0 4.6626,2.07952 4.6626,4.6626 v 30.6748 c 0,2.58308 -2.07952,4.6626 -4.6626,4.6626 H 89.6626 C 87.079519,168.5 85,166.42048 85,163.8374 v -30.6748 c 0,-2.58308 2.079519,-4.6626 4.6626,-4.6626 z" />
    <path
       d="m 115.49865,137.19701 q 2.24366,0 3.55599,1.524 1.35467,1.48167 1.35467,4.02167 0,0.93133 -0.0847,1.397 l -2.24366,15.87498 h -3.85233 l 2.20133,-15.57865 q 0.0847,-0.508 0.0847,-1.31233 0,-1.524 -0.635,-2.07434 -0.59267,-0.59266 -1.651,-0.59266 -1.651,0 -3.25967,1.69333 -1.56633,1.651 -3.17499,4.445 l -1.905,13.41965 h -3.85233 l 2.20133,-15.57865 q 0.0847,-0.508 0.0847,-1.31233 0,-1.524 -0.635,-2.07434 -0.59267,-0.59266 -1.60867,-0.59266 -3.005664,0 -6.476995,6.18066 l -1.820332,13.37732 h -3.85233 l 3.132664,-22.30965 h 3.301998 l -0.338667,4.27567 q 1.650999,-2.32833 3.386664,-3.556 1.777998,-1.22767 3.894668,-1.22767 1.86266,0 3.21733,1.18534 1.35466,1.18533 1.651,3.34433 1.69333,-2.24367 3.47133,-3.38667 1.82033,-1.143 3.85233,-1.143 z"
       id="text1"
       style="font-style:italic;font-size:42.3333px;font-family:'Fira Sans';-inkscape-font-specification:'Fira Sans Italic';letter-spacing:1.32292px;fill:#ffffff;stroke-width:0.264583"
       aria-label="m" />
  </g>
</svg>
